Ready (2011)- Blu-Ray- 720p - x264 - AC3 -=[RedHeart]=-


General
Complete name                    : Ready (2011) - Blu-Ray - 720p - x264 - AC3 - [RedHeart].mkv
Format                           : Matroska
File size                        : 2.19 GiB
Duration                         : 2h 25mn
Overall bit rate                 : 2 156 Kbps

Video
ID                               : 1
Format                           : AVC
Format/Info                      : Advanced Video Codec
Format profile                   : High@L3.1
Format settings, CABAC           : Yes
Format settings, ReFrames        : 4 frames
Codec ID                         : V_MPEG4/ISO/AVC
Duration                         : 2h 25mn
Bit rate                         : 1 834 Kbps
Width                            : 1 280 pixels
Height                           : 544 pixels
Display aspect ratio             : 2.35:1
Frame rate                       : 24.000 fps
Stream size                      : 1.82 GiB (83%)
Writing library                  : x264 core 115 r1995 c1e60b9

Audio
ID                               : 2
Format                           : AC-3
Format/Info                      : Audio Coding 3
Mode extension                   : CM (complete main)
Codec ID                         : A_AC3
Duration                         : 2h 25mn
Bit rate mode                    : Constant
Bit rate                         : 320 Kbps
Channel(s)                       : 6 channels
Channel positions                : Front: L C R, Side: L R, LFE
Sampling rate                    : 48.0 KHz
Bit depth                        : 16 bits
Compression mode                 : Lossy
Stream size                      : 332 MiB (15%)
Title                            : RedHeart
Language                         : Hindi


 
http://img10.imageshack.us/img10/3640/vlcsnap2011082523h30m14.png 
http://img692.imageshack.us/img692/203/vlcsnap2011082523h54m42.png 
http://img193.imageshack.us/img193/7606/vlcsnap2011082523h55m50.png 
http://img204.imageshack.us/img204/2390/vlcsnap2011082600h10m26.png 
http://img84.imageshack.us/img84/7870/vlcsnap2011082600h14m07.png 
http://img855.imageshack.us/img855/171/vlcsnap2011082600h15m39.png 
http://img204.imageshack.us/img204/5366/vlcsnap2011082600h20m08.png 
http://img8.imageshack.us/img8/8919/vlcsnap2011082600h28m02.png 
http://img810.imageshack.us/img810/450/vlcsnap2011082600h37m32.png 
http://img51.imageshack.us/img51/8122/vlcsnap2011082600h40m38.png 
http://img808.imageshack.us/img808/6608/vlcsnap2011082600h43m30.png 
http://img839.imageshack.us/img839/305/vlcsnap2011082600h43m42.png 
http://img4.imageshack.us/img4/7193/vlcsnap2011082600h44m03.png 
http://img820.imageshack.us/img820/4051/vlcsnap2011082600h46m07.png 
http://img809.imageshack.us/img809/6734/vlcsnap2011082600h46m32.png 
http://img808.imageshack.us/img808/4787/vlcsnap2011082600h47m10.png
